<?xml version="1.0" ?><!DOCTYPE svg  PUBLIC '-//W3C//DTD SVG 1.1//EN'  'http://www.w3.org/Graphics/SVG/1.1/DTD/svg11.dtd'><svg enable-background="new 0 0 32 32" height="32px" id="_x3C_Layer_x3E_" version="1.1" viewBox="0 0 32 32" width="32px" xml:space="preserve" xmlns="http://www.w3.org/2000/svg" xmlns:xlink="http://www.w3.org/1999/xlink" fill="#000"><g id="folder"><g><path d="M29.5,7h-18c-0.167,0-0.323-0.084-0.416-0.223L9.639,4.609C9.426,4.29,8.884,4,8.5,4h-5    C3.224,4,3,4.225,3,4.5v2C3,6.776,2.776,7,2.5,7S2,6.776,2,6.5v-2C2,3.673,2.673,3,3.5,3h5c0.723,0,1.571,0.453,1.971,1.055    L11.768,6H29.5C29.776,6,30,6.224,30,6.5S29.776,7,29.5,7z" fill="#FFF"/></g><g><g><path d="M29.5,30h-27C1.673,30,1,29.327,1,28.5v-19C1,8.673,1.673,8,2.5,8h27C30.327,8,31,8.673,31,9.5v19     C31,29.327,30.327,30,29.5,30z M2.5,9C2.224,9,2,9.225,2,9.5v19C2,28.775,2.224,29,2.5,29h27c0.276,0,0.5-0.225,0.5-0.5v-19     C30,9.225,29.776,9,29.5,9H2.5z" fill="#FFF"/></g></g><g><g><path d="M25.5,28h-24C1.224,28,1,27.776,1,27.5S1.224,27,1.5,27h24c0.276,0,0.5,0.224,0.5,0.5S25.776,28,25.5,28z     " fill="#FFF"/></g></g><g><g><path d="M13.5,13h-9C4.224,13,4,12.776,4,12.5S4.224,12,4.5,12h9c0.276,0,0.5,0.224,0.5,0.5S13.776,13,13.5,13z" fill="#FFF"/></g></g><g><g><path d="M9.5,15h-5C4.224,15,4,14.776,4,14.5S4.224,14,4.5,14h5c0.276,0,0.5,0.224,0.5,0.5S9.776,15,9.5,15z" fill="#FFF"/></g></g><g><circle cx="27.5" cy="27.5" fill="#FFF" r="0.5"/></g></g></svg>
